<svg xmlns="http://www.w3.org/2000/svg" width="874.037" height="703.823">
    <g transform="scale(-1) rotate(-53 -578.378 1547.793)">
        <path d="m910.041 440.869 317.115-238.927L1341.03 353.08l-317.114 238.927a94.618 94.618 0 0 1-132.507-18.633 94.618 94.618 0 0 1 18.632-132.506Z"
              fill="#fff"/>
        <path d="m1310.14 612.918 144.54-108.902 113.874 151.139-144.54 108.902a94.618 94.618 0 0 1-132.506-18.633 94.618 94.618 0 0 1 18.632-132.506Z"
              fill="#fff"/>
        <path fill="#fff" d="m1229.167 426.352 106.467-80.216 124.261 164.924-106.467 80.217z"/>
        <path d="M480.328 380.658 1042.664-43.03l68.005 90.259L638.59 402.912a113.01 113.01 0 0 1-158.263-22.254Z"
              fill="#fff"/>
        <path d="m899.758 442.74 318.984-240.335 113.875 151.139-318.984 240.336a94.618 94.618 0 0 1-132.507-18.633 94.618 94.618 0 0 1 18.632-132.506Z"
              fill="#fff"/>
        <path fill="#fff" d="m848.091 236.211 258.224-194.557 120.835 160.378-258.224 194.557z"/>
        <rect width="311.074" height="189.2" rx="94.6" transform="rotate(-37 1366.699 -1324.243)" fill="#17141a"/>
        <rect width="311.074" height="190.2" rx="95.1" transform="rotate(-37 896.291 -828.716)" fill="#17141a"/>
    </g>
</svg>
